<svg width="41" height="41" viewBox="0 0 41 41" fill="none" xmlns="http://www.w3.org/2000/svg">
<rect x="0.5" y="0.5" width="40" height="40" rx="9.5" fill="url(#paint0_linear_162_130)" stroke="#FFFAF1"/>
<path d="M24.1667 25C24.6087 25 25.0327 25.1756 25.3452 25.4881C25.6578 25.8007 25.8334 26.2246 25.8334 26.6666C25.8334 27.1087 25.6578 27.5326 25.3452 27.8451C25.0327 28.1577 24.6087 28.3333 24.1667 28.3333C23.7247 28.3333 23.3008 28.1577 22.9882 27.8451C22.6756 27.5326 22.5 27.1087 22.5 26.6666C22.5 25.7416 23.2417 25 24.1667 25ZM10.8334 11.6666H13.5584L14.3417 13.3333H26.6667C26.8877 13.3333 27.0997 13.4211 27.256 13.5774C27.4122 13.7337 27.5 13.9456 27.5 14.1666C27.5 14.3083 27.4584 14.45 27.4 14.5833L24.4167 19.975C24.1334 20.4833 23.5834 20.8333 22.9584 20.8333H16.75L16 22.1916L15.975 22.2916C15.975 22.3469 15.997 22.3999 16.0361 22.4389C16.0751 22.478 16.1281 22.5 16.1834 22.5H25.8334V24.1666H15.8334C15.3913 24.1666 14.9674 23.991 14.6549 23.6785C14.3423 23.3659 14.1667 22.942 14.1667 22.5C14.1667 22.2083 14.2417 21.9333 14.3667 21.7L15.5 19.6583L12.5 13.3333H10.8334V11.6666ZM15.8334 25C16.2754 25 16.6993 25.1756 17.0119 25.4881C17.3244 25.8007 17.5 26.2246 17.5 26.6666C17.5 27.1087 17.3244 27.5326 17.0119 27.8451C16.6993 28.1577 16.2754 28.3333 15.8334 28.3333C15.3913 28.3333 14.9674 28.1577 14.6549 27.8451C14.3423 27.5326 14.1667 27.1087 14.1667 26.6666C14.1667 25.7416 14.9084 25 15.8334 25ZM23.3334 19.1666L25.65 15H15.1167L17.0834 19.1666H23.3334Z" fill="white"/>
<defs>
<linearGradient id="paint0_linear_162_130" x1="41" y1="20.5" x2="0" y2="20.5" gradientUnits="userSpaceOnUse">
<stop offset="0.05" stop-color="#251A1A"/>
<stop offset="0.365" stop-color="#362A29"/>
<stop offset="1" stop-color="#574948"/>
</linearGradient>
</defs>
</svg>
