<svg width="54" height="59" viewBox="0 0 54 59" fill="none" xmlns="http://www.w3.org/2000/svg">
<path d="M51.2748 13.9834L51.2746 13.9833C51.2499 13.9688 51.2236 13.9536 51.1957 13.9382C51.1954 13.9381 51.1952 13.9379 51.1949 13.9378L28.6997 1.44046C27.6426 0.853185 26.3574 0.853181 25.3004 1.44044C25.3004 1.44045 25.3003 1.44045 25.3003 1.44046L2.96612 13.8483L2.95403 13.8485L2.75408 13.9661L2.56214 14.0727L2.55012 14.0932C1.58497 14.7404 1 15.8292 1 17V41.9998C1 43.2709 1.6891 44.4421 2.80041 45.0592L25.2642 57.5393C26.3258 58.1456 27.6288 58.1546 28.6996 57.5597C28.6997 57.5597 28.6997 57.5596 28.6997 57.5596L51.1996 45.0597L51.1997 45.0597C52.3108 44.4423 53 43.2712 53 42V17C53 15.7599 52.3437 14.6123 51.2748 13.9834ZM27.0002 25.496L11.7072 16.9999L27 8.50386L42.2931 17L27.0002 25.496ZM23.5 48.5515L8 39.9404V22.9483L23.5 31.5594V48.5515ZM46 22.9483V39.9406L30.5 48.5517V31.5594L46 22.9483Z" fill="url(#paint0_linear_22_141)" stroke="#1A1615" stroke-width="2"/>
<defs>
<linearGradient id="paint0_linear_22_141" x1="27" y1="57" x2="27" y2="2" gradientUnits="userSpaceOnUse">
<stop stop-color="#FF6507"/>
<stop offset="0.35" stop-color="#FF7E0E"/>
<stop offset="0.6" stop-color="#FF8F13"/>
<stop offset="1" stop-color="#FFAB1B"/>
</linearGradient>
</defs>
</svg>
