<svg width="36" height="36" viewBox="0 0 36 36" fill="none" xmlns="http://www.w3.org/2000/svg">
<path d="M0 18C0 20.448 0.48 22.788 1.44 25.02C2.4 27.252 3.672 29.16 5.256 30.744C6.84 32.328 8.76 33.612 11.016 34.596C13.272 35.58 15.6 36.048 18 36C20.448 36 22.788 35.532 25.02 34.596C27.252 33.66 29.16 32.376 30.744 30.744C32.328 29.112 33.6 27.204 34.56 25.02C35.52 22.836 36 20.496 36 18C36 15.504 35.52 13.176 34.56 11.016C33.6 8.856 32.328 6.936 30.744 5.256C29.16 3.576 27.252 2.304 25.02 1.44C22.788 0.576 20.448 0.096 18 0C15.552 0 13.224 0.48 11.016 1.44C8.808 2.4 6.888 3.672 5.256 5.256C3.624 6.84 2.352 8.76 1.44 11.016C0.528 13.272 0.048 15.6 0 18ZM4.5 18C4.5 15.552 5.1 13.296 6.3 11.232C7.5 9.168 9.144 7.536 11.232 6.336C13.32 5.136 15.576 4.524 18 4.5C20.424 4.476 22.68 5.088 24.768 6.336C26.856 7.584 28.5 9.216 29.7 11.232C30.9 13.248 31.5 15.504 31.5 18C31.5 20.496 30.9 22.764 29.7 24.804C28.5 26.844 26.856 28.476 24.768 29.7C22.68 30.924 20.424 31.524 18 31.5C15.576 31.476 13.32 30.876 11.232 29.7C9.144 28.524 7.5 26.892 6.3 24.804C5.1 22.716 4.5 20.448 4.5 18ZM18 29.268C20.04 29.268 21.924 28.764 23.652 27.756C25.38 26.748 26.748 25.38 27.756 23.652C28.764 21.924 29.268 20.04 29.268 18C29.268 15.96 28.764 14.088 27.756 12.384C26.748 10.68 25.38 9.312 23.652 8.28C21.924 7.248 20.04 6.744 18 6.768V29.268Z" fill="#2F2322"/>
</svg>
