<svg width="36" height="36" viewBox="0 0 36 36" fill="none" xmlns="http://www.w3.org/2000/svg">
<path fill-rule="evenodd" clip-rule="evenodd" d="M36 18C36 27.9412 27.9412 36 18 36C8.05887 36 0 27.9412 0 18C0 8.05887 8.05887 0 18 0C27.9412 0 36 8.05887 36 18ZM20.8125 8.4375C20.8125 9.99081 19.5533 11.25 18 11.25C16.4467 11.25 15.1875 9.99081 15.1875 8.4375C15.1875 6.88419 16.4467 5.625 18 5.625C19.5533 5.625 20.8125 6.88419 20.8125 8.4375ZM27 18H21.1928L25.2106 29.25H20.4323L18 22.4397L15.5678 29.25H10.7894L14.8073 18H9V13.5H27V18Z" fill="#2F2322"/>
</svg>
